<svg id="Layer_1" data-name="Layer 1" xmlns="http://www.w3.org/2000/svg" xmlns:xlink="http://www.w3.org/1999/xlink" viewBox="0 0 2953.7 1889.3"><defs><style>.cls-1{fill:#fff;}.cls-2{fill:url(#Fading_Sky);}.cls-3{fill:url(#Fading_Sky-2);}.cls-4{fill:url(#Fading_Sky-3);}.cls-5{fill:url(#Fading_Sky-4);}.cls-6{fill:url(#Fading_Sky-5);}.cls-7{fill:url(#Fading_Sky-6);}.cls-8{fill:url(#Fading_Sky-7);}.cls-9{fill:url(#Fading_Sky-8);}</style><linearGradient id="Fading_Sky" x1="79.07" y1="81" x2="825.6" y2="81" gradientTransform="translate(101.1 -215.31) rotate(30)" gradientUnits="userSpaceOnUse"><stop offset="0" stop-color="#2484c6"/><stop offset="1" stop-color="#2484c6" stop-opacity="0"/></linearGradient><linearGradient id="Fading_Sky-2" x1="-165.06" y1="461" x2="589.73" y2="461" gradientTransform="matrix(1.27, 0.5, -0.73, 0.87, 449.69, -141.97)" xlink:href="#Fading_Sky"/><linearGradient id="Fading_Sky-3" x1="-31.55" y1="864.44" x2="729.86" y2="864.44" gradientTransform="matrix(1.67, 0.5, -0.96, 0.87, 933.54, -251.91)" xlink:href="#Fading_Sky"/><linearGradient id="Fading_Sky-4" x1="269.78" y1="1152.49" x2="1030.5" y2="1152.49" gradientTransform="matrix(1.62, 0.5, -0.94, 0.87, 1025.66, -373.2)" xlink:href="#Fading_Sky"/><linearGradient id="Fading_Sky-5" x1="480.69" y1="1493.74" x2="1241.41" y2="1493.74" gradientTransform="matrix(1.62, 0.5, -0.94, 0.87, 1223.13, -438.18)" xlink:href="#Fading_Sky"/><linearGradient id="Fading_Sky-6" x1="519.77" y1="776.35" x2="1282.55" y2="776.35" gradientTransform="matrix(1.76, 0.5, -1.02, 0.87, 477.66, -562.4)" xlink:href="#Fading_Sky"/><linearGradient id="Fading_Sky-7" x1="1001.18" y1="963.35" x2="1763.96" y2="963.35" gradientTransform="matrix(1.76, 0.5, -1.02, 0.87, 590.91, -945.06)" xlink:href="#Fading_Sky"/><linearGradient id="Fading_Sky-8" x1="512.3" y1="321" x2="1269.7" y2="321" gradientTransform="matrix(1.42, 0.5, -0.82, 0.87, -137.2, -386.17)" xlink:href="#Fading_Sky"/></defs><rect class="cls-1" x="160.93" y="170.01" width="1920" height="1080"/><rect class="cls-2" x="34.33" y="-3" width="836" height="168" rx="84" transform="translate(181.03 407.03) rotate(-30)"/><rect class="cls-3" x="-231.81" y="279.44" width="1226.26" height="168" rx="84" transform="translate(30.3 409.37) rotate(-30)"/><rect class="cls-4" x="-120.6" y="587.29" width="1608.6" height="168" rx="84" transform="translate(-83.11 601.8) rotate(-30)"/><rect class="cls-5" x="218.31" y="865.96" width="1565.25" height="168" rx="84" transform="translate(-179.95 797.75) rotate(-30)"/><rect class="cls-6" x="438.31" y="1201.96" width="1565.25" height="168" rx="84" transform="translate(-318.47 952.77) rotate(-30)"/><rect class="cls-7" x="425.32" y="476.51" width="1699.35" height="168" rx="84" transform="translate(51.49 882.61) rotate(-30)"/><rect class="cls-8" x="1195.99" y="496.51" width="1699.35" height="168" rx="84" transform="translate(144.74 1270.62) rotate(-30)"/><rect class="cls-9" x="178.8" y="253.32" width="1367.86" height="168" rx="84" transform="matrix(0.87, -0.5, 0.5, 0.87, 107.86, 646.57)"/></svg>