<svg id="Layer_1" data-name="Layer 1" xmlns="http://www.w3.org/2000/svg" viewBox="0 0 2067.03 1080.89"><defs><style>.cls-1{fill:#353030;}</style></defs><path class="cls-1" d="M2015.19,78.35c-60.21-48.39-147.7-63.42-217.82-31C1692.66,95.75,1655.82,222.43,1619.73,332c-29.91,90.78-68,181-131,252.86C1419,664.5,1322,717,1220.46,747s-208.19,38.75-314.06,41.6c-231,6.2-462.79-14.9-692.78,7.21-53.87,5.18-108.49,13-157.45,36.07S-36,895.51-50.53,947.63c-4.93,17.63,5.83,42.94,4.71,61.22s.38,37.89,11.33,52.57c15,20.08,42.61,25,67.55,27.48A1125.55,1125.55,0,0,0,176,1094.15c312.65-8.39,630.82,9.37,943.54,14.94,118.53,2.11,237.23,4.22,355.5-3.85,87.5-6,175-17.52,262.61-12.51,40.25,2.3,80.84,8.07,120.65,1.68s80-27.76,96.26-64.66c8-18.14,9.57-38.36,11-58.13l12.94-174.29c2.54-34.15,5.06-68.7-.68-102.45-6.78-39.83-24.76-76.84-35-115.91-17.51-66.72-12-137-6.43-205.79,8.86-108.66,17.72-217.39,32.41-325.42" transform="translate(51.83 -30.12)"/></svg>